<?xml version="1.0" encoding="utf-8"?><svg xmlns="http://www.w3.org/2000/svg" xmlns:xlink="http://www.w3.org/1999/xlink"><symbol viewBox="0 0 15 11" id="arrow-down" xmlns="http://www.w3.org/2000/svg"><defs><mask id="ab" width="2" height="2" x="-1" y="-1"><path d="M2 1h11v7H2z"/><path d="M2.293 2.707l1.414-1.414L7.5 5.086l3.793-3.793 1.414 1.414-5 5L7.5 7.5l-.207.207z"/></mask><filter id="aa" width="35" height="32" x="-10" y="-11" filterUnits="userSpaceOnUse"><feOffset dy="1" in="SourceGraphic" result="FeOffset1023Out"/><feGaussianBlur in="FeOffset1023Out" result="FeGaussianBlur1024Out" stdDeviation="0.8 0.8"/></filter></defs><g filter="url(#aa)"><path d="M2.293 2.707l1.414-1.414L7.5 5.086l3.793-3.793 1.414 1.414-5 5L7.5 7.5l-.207.207z" mask="url(#ab)"/><path d="M2.293 2.707l1.414-1.414L7.5 5.086l3.793-3.793 1.414 1.414-5 5L7.5 7.5l-.207.207z"/></g><path d="M2.293 2.707l1.414-1.414L7.5 5.086l3.793-3.793 1.414 1.414-5 5L7.5 7.5l-.207.207z"/></symbol><symbol viewBox="0 0 17.9 17.6" id="corrected" xmlns="http://www.w3.org/2000/svg"><path d="M10.1 10.5l2.1.5.4-1.6.8-.2 1 1.5 1.8-1.2-1-1.5.5-.7 1.7.4.5-2.1-1.7-.4-.2-.8 1.5-1-1.2-1.8-1.5 1-.7-.5.4-1.6-2.1-.5-.4 1.6-.9.1-.9-1.5-1.8 1.3.9 1.5-.4.6-1.6-.3-.5 2.1 1.6.3.2.9-1.5.9 1.2 1.8 1.5-.9.7.5-.4 1.6zm.2-5.5c.2-1.1 1.3-1.8 2.4-1.5 1.1.2 1.8 1.3 1.5 2.4-.2 1.1-1.3 1.8-2.4 1.5-1.1-.2-1.7-1.3-1.5-2.4z"/><path d="M3.3 17.2l2.1.4.3-1.6.8-.2 1 1.5 1.8-1.2-1-1.5.5-.6 1.7.4.5-2.1-1.7-.4-.1-.8 1.5-1-1.2-1.8-1.5 1-.7-.5.4-1.6-2.1-.5-.4 1.6-.8.2-1-1.5-1.8 1.2.9 1.5-.5.6L.5 10 0 12.1l1.6.3.2.9-1.5.9L1.5 16l1.5-.9.7.5-.4 1.6zm.2-5.5c.2-1.1 1.3-1.8 2.4-1.5 1.1.2 1.8 1.3 1.5 2.4-.2 1.1-1.3 1.8-2.4 1.5-1.1-.2-1.8-1.3-1.5-2.4z"/></symbol><symbol viewBox="0 0 24 23" id="star" xmlns="http://www.w3.org/2000/svg"><defs><filter id="ca" width="44" height="45" x="-10" y="-12" filterUnits="userSpaceOnUse"><feOffset dy="2" in="SourceGraphic" result="FeOffset1042Out"/><feGaussianBlur in="FeOffset1042Out" result="FeGaussianBlur1043Out" stdDeviation="0.8 0.8"/></filter></defs><g filter="url(#ca)"><path d="M12 0l3.296 5.971 6.703 1.286-4.666 4.977L18.18 19 12 16.104 5.82 19l.847-6.766-4.666-4.977 6.703-1.286L12 .001"/></g><path d="M12 0l3.296 5.971 6.703 1.286-4.666 4.977L18.18 19 12 16.104 5.82 19l.847-6.766-4.666-4.977 6.703-1.286L12 .001"/></symbol></svg>